<?xml version="1.0" encoding="utf-8"?>
<!-- Generator: Adobe Illustrator 16.0.0, SVG Export Plug-In . SVG Version: 6.00 Build 0)  -->
<!DOCTYPE svg PUBLIC "-//W3C//DTD SVG 1.1//EN" "http://www.w3.org/Graphics/SVG/1.1/DTD/svg11.dtd">
<svg version="1.1" id="Layer_1" xmlns="http://www.w3.org/2000/svg" xmlns:xlink="http://www.w3.org/1999/xlink" x="0px" y="0px"
	 width="576px" height="576px" viewBox="0 0 576 576" enable-background="new 0 0 576 576" xml:space="preserve">
<g>
	<path d="M494.778,541.488H80.772V34.512h414.006V541.488z M110.772,511.488h354.006V64.512H110.772V511.488z"/>
	<rect x="144.278" y="268.958" width="282.952" height="30"/>
	<rect x="144.278" y="349.801" width="282.952" height="30"/>
	<rect x="144.278" y="430.645" width="282.952" height="30"/>
	<path d="M289.797,230.241c-37.246,0-67.548-30.302-67.548-67.548s30.302-67.548,67.548-67.548s67.548,30.302,67.548,67.548
		S327.043,230.241,289.797,230.241z M289.797,125.145c-20.704,0-37.548,16.844-37.548,37.548s16.844,37.548,37.548,37.548
		s37.548-16.844,37.548-37.548S310.501,125.145,289.797,125.145z"/>
</g>
</svg>
