<?xml version="1.0" encoding="utf-8"?>
<!-- Generator: Adobe Illustrator 16.0.0, SVG Export Plug-In . SVG Version: 6.00 Build 0)  -->
<!DOCTYPE svg PUBLIC "-//W3C//DTD SVG 1.1//EN" "http://www.w3.org/Graphics/SVG/1.1/DTD/svg11.dtd">
<svg version="1.1" id="Layer_1" xmlns="http://www.w3.org/2000/svg" xmlns:xlink="http://www.w3.org/1999/xlink" x="0px" y="0px"
	 width="576px" height="576px" viewBox="0 0 576 576" enable-background="new 0 0 576 576" xml:space="preserve">
<g id="oMJPgN_1_">
	<g>
		<path fill="#FFFFFF" d="M85.864,326.539c0,18.702-0.006,37.403,0.004,56.106c0.002,3.778,2.072,6.264,5.113,5.592
			c1.643-0.364,3.33-1.665,4.47-2.995c11.458-13.358,22.812-26.807,34.185-40.239c21.821-25.775,43.624-51.564,65.467-77.319
			c1.925-2.269,3.037-4.692,1.87-7.551c-1.25-3.066-4.084-2.819-6.765-2.817c-22.223,0.017-44.446,0.01-66.668,0.006
			c-4.407,0-4.399-0.01-4.399-4.549c0-19.252-0.014-38.504,0.003-57.756c0.002-2.4-0.098-4.682-2.697-5.844
			c-2.369-1.06-4.217-0.019-6.031,1.418c-27.929,22.141-55.864,44.272-83.814,66.385c-2.131,1.685-3.734,3.559-2.757,6.447
			c0.936,2.763,3.389,3.191,5.876,3.387c0.875,0.069,1.76,0.018,2.64,0.017c16.612-0.001,33.225,0.063,49.836-0.067
			c2.869-0.022,3.752,0.722,3.732,3.673C85.798,289.134,85.862,307.837,85.864,326.539z M354.987,323.898c0.027,0,0.055,0,0.081,0
			c0,19.565-0.019,39.132,0.018,58.697c0.008,4.164,3.236,6.273,6.5,4.161c1.283-0.829,2.289-2.365,2.974-3.795
			c3.275-6.835,6.4-13.742,9.573-20.626c12.646-27.438,25.366-54.842,37.805-82.372c1.15-2.544,1.33-6.171,0.475-8.814
			c-1.078-3.332-3.377-6.443-5.752-9.113c-1.338-1.503-3.879-2.684-5.896-2.714c-13.188-0.199-26.379-0.067-39.568,0.009
			c-5.188,0.03-6.197,1.065-6.201,6.201C354.979,284.988,354.987,304.443,354.987,323.898z M420.275,258.199
			c-0.011,0-0.02,0-0.029,0c0,19.466-0.025,38.933,0.01,58.4c0.017,9.363-0.1,8.328,8.164,8.3c0.33,0,0.667-0.046,0.988,0.002
			c8.577,1.279,15.508-0.953,19.778-9.096c1.188-2.263,2.771-2.067,4.872-0.834c5.209,3.061,10.536,5.931,15.902,8.709
			c3.678,1.903,6.471-0.056,6.018-4.166c-1.071-9.72-2.144-19.431-6.075-28.569c-1.604-3.726-2.892-7.61-4.033-11.507
			c-8.949-30.508-22.854-58.955-36.322-87.583c-1.201-2.551-3.312-3.501-5.98-2.808c-2.559,0.666-3.811,2.39-3.521,5.158
			c0.181,1.744,0.219,3.509,0.22,5.265C420.28,219.045,420.275,238.622,420.275,258.199z M301.57,324.487c0-0.024,0-0.048,0-0.071
			c0.438,0,0.879,0,1.318,0c13.075-0.006,26.151,0.084,39.223-0.13c1.813-0.029,4.366-1.106,5.186-2.511
			c0.805-1.381,0.492-4.215-0.456-5.686c-5.826-9.047-11.938-17.912-18.027-26.785c-2.725-3.97-4.324-4.42-8.968-2.968
			c-5.132,1.604-10.303,3.1-15.375,4.878c-2.433,0.853-4.104,0.375-5.854-1.43c-2.674-2.757-5.583-5.287-8.392-7.914
			c-4.518-4.227-7.847-3.987-11.333,1.081c-7.344,10.68-14.571,21.439-21.864,32.154c-1.418,2.083-2.505,4.265-1.265,6.746
			c1.284,2.569,3.735,2.662,6.253,2.654C275.201,324.465,288.386,324.487,301.57,324.487z M213.682,324.553c0,0.013,0,0.026,0,0.04
			c10.11,0,20.22,0.029,30.33-0.016c3.62-0.017,4.75-1.444,3.973-4.982c-0.277-1.265-0.868-2.483-1.448-3.657
			c-3.31-6.695-6.657-13.373-9.997-20.053c-5.846-11.692-11.664-23.398-17.563-35.062c-1.795-3.551-5.417-4.767-8.108-2.685
			c-1.149,0.889-1.978,2.331-2.653,3.671c-7.31,14.516-14.565,29.06-21.824,43.602c-2.109,4.225-4.339,8.397-6.228,12.72
			c-1.937,4.429-0.562,6.399,4.179,6.412C194.121,324.571,203.902,324.553,213.682,324.553z M517.718,324.448
			c0-0.022,0-0.045,0-0.067c10.219,0,20.438,0.021,30.657-0.012c3.301-0.011,4.371-1.288,3.732-4.531
			c-0.25-1.267-0.845-2.489-1.419-3.665c-3.227-6.611-6.47-13.213-9.754-19.795c-5.833-11.689-11.707-23.358-17.542-35.046
			c-1.081-2.166-2.347-3.917-5.117-3.967c-2.923-0.053-4.332,1.728-5.427,4.031c-0.094,0.198-0.211,0.385-0.31,0.582
			c-7.311,14.64-14.628,29.276-21.926,43.923c-2.105,4.226-4.343,8.399-6.179,12.741c-1.667,3.942-0.281,5.789,3.945,5.799
			C498.159,324.465,507.938,324.448,517.718,324.448z"/>
		<path fill-rule="evenodd" clip-rule="evenodd" d="M85.863,326.539c-0.001-18.702-0.065-37.405,0.065-56.106
			c0.021-2.951-0.863-3.695-3.732-3.673c-16.611,0.13-33.224,0.066-49.836,0.067c-0.88,0-1.765,0.052-2.64-0.017
			c-2.487-0.196-4.94-0.624-5.876-3.387c-0.977-2.888,0.626-4.762,2.757-6.447c27.951-22.113,55.886-44.245,83.814-66.385
			c1.813-1.438,3.662-2.479,6.031-1.418c2.599,1.163,2.699,3.444,2.697,5.844c-0.018,19.252-0.003,38.504-0.003,57.756
			c0,4.54-0.007,4.549,4.399,4.549c22.223,0.004,44.446,0.01,66.668-0.006c2.681-0.002,5.516-0.249,6.765,2.817
			c1.167,2.859,0.055,5.282-1.87,7.551c-21.843,25.755-43.646,51.544-65.467,77.319c-11.372,13.433-22.727,26.881-34.185,40.239
			c-1.141,1.33-2.827,2.631-4.47,2.995c-3.042,0.672-5.111-1.813-5.113-5.592C85.857,363.942,85.864,345.241,85.863,326.539z
			 M183.101,267.026c-1.786-0.099-2.735-0.198-3.686-0.198c-28.484-0.003-56.969,0.058-85.453-0.064
			c-3.279-0.014-3.964,1.068-3.955,4.122c0.1,33.873,0.063,67.747,0.077,101.62c0,1.017,0.134,2.033,0.277,4.066
			C121.531,339.756,152.042,303.715,183.101,267.026z M114.7,199.45c-24.444,19.353-48.184,38.149-71.924,56.945
			c1.392,0.839,2.348,0.941,3.304,0.941c21.642,0.001,43.284-0.082,64.924,0.058c3.318,0.021,3.971-1.12,3.946-4.151
			c-0.129-16.587-0.06-33.176-0.069-49.764C114.88,202.424,114.789,201.37,114.7,199.45z"/>
		<path fill-rule="evenodd" clip-rule="evenodd" d="M354.987,323.898c0-19.455-0.009-38.91,0.007-58.366
			c0.004-5.136,1.014-6.171,6.201-6.201c13.189-0.076,26.381-0.208,39.568-0.009c2.018,0.03,4.559,1.21,5.896,2.714
			c2.375,2.67,4.674,5.781,5.752,9.113c0.855,2.644,0.676,6.27-0.475,8.814c-12.438,27.53-25.159,54.934-37.805,82.372
			c-3.173,6.884-6.298,13.791-9.573,20.626c-0.685,1.43-1.69,2.966-2.974,3.795c-3.264,2.112-6.492,0.003-6.5-4.161
			c-0.036-19.565-0.018-39.132-0.018-58.697C355.042,323.898,355.015,323.898,354.987,323.898z M364.443,358.757
			c0.23,0.068,0.459,0.137,0.688,0.205c0.418-0.734,0.89-1.442,1.243-2.206c12.035-26.017,24.065-52.035,36.079-78.062
			c1.832-3.971-0.281-7.158-4.766-7.169c-9.89-0.027-19.782,0.123-29.669-0.067c-3.17-0.062-3.856,1.087-3.845,4.004
			c0.095,26.923,0.064,53.845,0.081,80.768C364.256,357.071,364.378,357.914,364.443,358.757z"/>
		<path fill-rule="evenodd" clip-rule="evenodd" d="M420.275,258.199c0-19.577,0.005-39.154-0.01-58.73
			c-0.001-1.755-0.039-3.521-0.22-5.265c-0.289-2.768,0.963-4.492,3.521-5.158c2.668-0.693,4.779,0.257,5.98,2.808
			c13.469,28.629,27.373,57.076,36.322,87.583c1.142,3.896,2.43,7.781,4.033,11.507c3.932,9.139,5.004,18.85,6.075,28.569
			c0.453,4.11-2.34,6.069-6.018,4.166c-5.366-2.778-10.693-5.648-15.902-8.709c-2.101-1.233-3.685-1.429-4.872,0.834
			c-4.271,8.143-11.201,10.375-19.778,9.096c-0.321-0.048-0.658-0.002-0.988-0.002c-8.264,0.028-8.147,1.063-8.164-8.3
			c-0.035-19.467-0.01-38.934-0.01-58.4C420.256,258.199,420.265,258.199,420.275,258.199z M430.475,215.997
			c-0.273,0.069-0.548,0.138-0.822,0.208c-0.053,1.137-0.148,2.273-0.149,3.411c-0.019,11.21-0.026,22.42-0.026,33.631
			c0.002,21.542,0.043,43.084-0.033,64.625c-0.009,2.581,0.584,3.48,3.412,3.73c4.918,0.437,8.479-0.978,10.991-5.256
			c0.824-1.405,2.044-2.578,3.09-3.853c2.964-3.608,3.357-3.688,7.382-1.421c3.774,2.129,7.541,4.274,11.312,6.414
			c0.271-0.169,0.546-0.337,0.818-0.505c-0.729-4.722-0.74-9.694-2.299-14.122c-9.945-28.247-17.991-57.233-32.078-83.896
			C431.548,217.971,431.009,216.986,430.475,215.997z"/>
		<path fill-rule="evenodd" clip-rule="evenodd" d="M301.57,324.487c-13.185,0-26.369-0.022-39.554,0.02
			c-2.519,0.008-4.969-0.085-6.253-2.654c-1.24-2.481-0.153-4.663,1.265-6.746c7.293-10.715,14.521-21.474,21.864-32.154
			c3.485-5.068,6.815-5.308,11.333-1.081c2.809,2.627,5.718,5.156,8.392,7.914c1.751,1.805,3.422,2.282,5.854,1.43
			c5.072-1.778,10.243-3.274,15.375-4.878c4.644-1.452,6.243-1.001,8.968,2.968c6.089,8.873,12.201,17.738,18.027,26.785
			c0.948,1.471,1.261,4.305,0.456,5.686c-0.819,1.404-3.372,2.481-5.186,2.511c-13.071,0.214-26.147,0.124-39.223,0.13
			c-0.439,0-0.88,0-1.318,0C301.57,324.439,301.57,324.463,301.57,324.487z M337.634,319.951c-0.349-0.824-0.481-1.347-0.764-1.771
			c-4.553-6.876-9.175-13.706-13.656-20.629c-1.148-1.773-2.409-1.87-4.182-1.283c-4.902,1.621-9.83,3.169-14.759,4.71
			c-3.731,1.167-7.002,0.84-9.902-2.29c-2.662-2.875-5.75-5.354-9.027-8.354c-6.698,9.896-13.173,19.464-20.046,29.618
			C289.833,319.951,313.562,319.951,337.634,319.951z"/>
		<path fill-rule="evenodd" clip-rule="evenodd" d="M213.682,324.553c-9.78,0-19.561,0.019-29.34-0.01
			c-4.74-0.013-6.115-1.983-4.179-6.412c1.889-4.322,4.119-8.495,6.228-12.72c7.259-14.542,14.515-29.085,21.824-43.602
			c0.675-1.341,1.504-2.782,2.653-3.671c2.691-2.083,6.312-0.867,8.108,2.685c5.899,11.664,11.717,23.37,17.563,35.062
			c3.34,6.68,6.687,13.357,9.997,20.053c0.58,1.174,1.171,2.393,1.448,3.657c0.777,3.538-0.353,4.966-3.973,4.982
			c-10.11,0.045-20.22,0.016-30.33,0.016C213.682,324.579,213.682,324.565,213.682,324.553z M189.646,320.249
			c16.45,0,32.153,0,48.435,0c-8.132-16.247-15.985-31.934-24.237-48.422C205.503,288.517,197.674,304.184,189.646,320.249z"/>
		<path fill-rule="evenodd" clip-rule="evenodd" d="M517.718,324.448c-9.779,0-19.559,0.017-29.338-0.008
			c-4.227-0.01-5.612-1.856-3.945-5.799c1.836-4.342,4.073-8.516,6.179-12.741c7.298-14.646,14.615-29.283,21.926-43.923
			c0.099-0.197,0.216-0.384,0.31-0.582c1.095-2.303,2.504-4.084,5.427-4.031c2.771,0.05,4.036,1.801,5.117,3.967
			c5.835,11.688,11.709,23.357,17.542,35.046c3.284,6.582,6.527,13.184,9.754,19.795c0.574,1.176,1.169,2.398,1.419,3.665
			c0.639,3.243-0.432,4.521-3.732,4.531c-10.219,0.032-20.438,0.012-30.657,0.012C517.718,324.403,517.718,324.426,517.718,324.448z
			 M542.644,320.461c-8.136-16.269-16.068-32.132-24.002-47.995c-0.345,0.008-0.688,0.017-1.033,0.025
			c-7.879,15.797-15.756,31.593-23.925,47.969C510.282,320.461,526.098,320.461,542.644,320.461z"/>
		<path fill-rule="evenodd" clip-rule="evenodd" fill="#FFFFFF" d="M183.101,267.026c-31.06,36.688-61.57,72.729-92.739,109.547
			c-0.143-2.033-0.276-3.05-0.277-4.066c-0.014-33.873,0.023-67.747-0.077-101.62c-0.009-3.054,0.676-4.136,3.955-4.122
			c28.484,0.122,56.968,0.061,85.453,0.064C180.366,266.829,181.315,266.928,183.101,267.026z"/>
		<path fill-rule="evenodd" clip-rule="evenodd" fill="#FFFFFF" d="M114.7,199.45c0.089,1.92,0.181,2.974,0.181,4.029
			c0.01,16.587-0.06,33.176,0.069,49.764c0.024,3.031-0.628,4.172-3.946,4.151c-21.641-0.14-43.283-0.056-64.924-0.058
			c-0.956,0-1.912-0.102-3.304-0.941C66.516,237.599,90.256,218.803,114.7,199.45z"/>
		<path fill-rule="evenodd" clip-rule="evenodd" fill="#FFFFFF" d="M364.443,358.757c-0.065-0.843-0.188-1.686-0.188-2.528
			c-0.017-26.923,0.014-53.845-0.081-80.768c-0.012-2.917,0.675-4.065,3.845-4.004c9.887,0.19,19.779,0.041,29.669,0.067
			c4.484,0.012,6.598,3.199,4.766,7.169c-12.014,26.027-24.044,52.046-36.079,78.062c-0.354,0.764-0.825,1.472-1.243,2.206
			C364.902,358.894,364.674,358.825,364.443,358.757z"/>
		<path fill-rule="evenodd" clip-rule="evenodd" fill="#FFFFFF" d="M430.475,215.997c0.534,0.989,1.073,1.974,1.598,2.966
			c14.087,26.663,22.133,55.649,32.078,83.896c1.559,4.428,1.57,9.4,2.299,14.122c-0.272,0.168-0.547,0.336-0.818,0.505
			c-3.771-2.14-7.538-4.285-11.312-6.414c-4.024-2.268-4.418-2.188-7.382,1.421c-1.046,1.274-2.266,2.447-3.09,3.853
			c-2.512,4.278-6.073,5.692-10.991,5.256c-2.828-0.25-3.421-1.149-3.412-3.73c0.076-21.541,0.035-43.083,0.033-64.625
			c0-11.21,0.008-22.421,0.026-33.631c0.001-1.137,0.097-2.274,0.149-3.411C429.927,216.135,430.201,216.066,430.475,215.997z"/>
		<path fill-rule="evenodd" clip-rule="evenodd" fill="#FFFFFF" d="M337.634,319.951c-24.072,0-47.801,0-72.336,0
			c6.873-10.154,13.349-19.722,20.046-29.618c3.278,3,6.365,5.479,9.027,8.354c2.9,3.13,6.171,3.457,9.902,2.29
			c4.929-1.541,9.856-3.089,14.759-4.71c1.772-0.587,3.033-0.49,4.182,1.283c4.481,6.923,9.104,13.753,13.656,20.629
			C337.152,318.604,337.285,319.127,337.634,319.951z"/>
		<path fill-rule="evenodd" clip-rule="evenodd" fill="#FFFFFF" d="M189.646,320.249c8.028-16.065,15.857-31.732,24.197-48.422
			c8.252,16.488,16.105,32.175,24.237,48.422C221.799,320.249,206.096,320.249,189.646,320.249z"/>
		<path fill-rule="evenodd" clip-rule="evenodd" fill="#FFFFFF" d="M542.644,320.461c-16.546,0-32.361,0-48.96,0
			c8.169-16.376,16.046-32.172,23.925-47.969c0.345-0.008,0.688-0.017,1.033-0.025C526.575,288.329,534.508,304.192,542.644,320.461
			z"/>
	</g>
</g>
</svg>
