<?xml version="1.0" encoding="utf-8"?>
<!-- Generator: Adobe Illustrator 16.0.0, SVG Export Plug-In . SVG Version: 6.00 Build 0)  -->
<!DOCTYPE svg PUBLIC "-//W3C//DTD SVG 1.1//EN" "http://www.w3.org/Graphics/SVG/1.1/DTD/svg11.dtd">
<svg version="1.1" id="Layer_1" xmlns="http://www.w3.org/2000/svg" xmlns:xlink="http://www.w3.org/1999/xlink" x="0px" y="0px"
	 width="576px" height="576px" viewBox="0 0 576 576" enable-background="new 0 0 576 576" xml:space="preserve">
<g id="oMJPgN_1_">
	<g>
		<path d="M85.863,326.539c-0.001-18.702-0.065-37.405,0.065-56.106c0.021-2.951-0.863-3.695-3.732-3.673
			c-16.611,0.13-33.224,0.066-49.836,0.067c-0.88,0-1.765,0.052-2.64-0.017c-2.487-0.196-4.94-0.624-5.876-3.387
			c-0.977-2.888,0.626-4.762,2.757-6.447c27.951-22.113,55.886-44.245,83.814-66.385c1.813-1.438,3.662-2.479,6.031-1.418
			c2.599,1.163,2.699,3.444,2.697,5.844c-0.018,19.252-0.003,38.504-0.003,57.756c0,4.54-0.007,4.549,4.399,4.549
			c22.223,0.004,44.446,0.01,66.668-0.006c2.681-0.002,5.516-0.249,6.765,2.817c1.167,2.859,0.055,5.282-1.87,7.551
			c-21.843,25.755-43.646,51.543-65.467,77.319c-11.372,13.433-22.727,26.881-34.185,40.239c-1.141,1.33-2.827,2.631-4.47,2.995
			c-3.042,0.672-5.111-1.813-5.113-5.593C85.857,363.942,85.864,345.241,85.863,326.539z M183.101,267.026
			c-1.786-0.099-2.735-0.198-3.686-0.198c-28.484-0.003-56.969,0.058-85.453-0.064c-3.279-0.014-3.964,1.068-3.955,4.122
			c0.1,33.873,0.063,67.747,0.077,101.62c0,1.018,0.134,2.033,0.277,4.066C121.531,339.756,152.042,303.715,183.101,267.026z
			 M114.7,199.45c-24.444,19.353-48.184,38.149-71.924,56.945c1.392,0.839,2.348,0.941,3.304,0.941
			c21.642,0.001,43.284-0.082,64.924,0.058c3.318,0.021,3.971-1.12,3.946-4.151c-0.129-16.587-0.06-33.176-0.069-49.764
			C114.88,202.424,114.789,201.37,114.7,199.45z"/>
		<path d="M354.986,323.898c0-19.455-0.008-38.911,0.008-58.366c0.004-5.136,1.014-6.171,6.201-6.201
			c13.188-0.076,26.381-0.208,39.567-0.009c2.019,0.03,4.56,1.21,5.896,2.714c2.375,2.67,4.674,5.781,5.752,9.113
			c0.854,2.644,0.676,6.27-0.476,8.814c-12.438,27.53-25.158,54.935-37.805,82.372c-3.173,6.884-6.298,13.791-9.572,20.626
			c-0.686,1.43-1.69,2.966-2.975,3.795c-3.264,2.112-6.492,0.003-6.5-4.161c-0.036-19.564-0.018-39.132-0.018-58.696
			C355.042,323.898,355.016,323.898,354.986,323.898z M364.443,358.757c0.229,0.068,0.459,0.137,0.688,0.205
			c0.418-0.734,0.891-1.442,1.243-2.206c12.035-26.017,24.065-52.035,36.079-78.062c1.832-3.971-0.281-7.158-4.766-7.169
			c-9.891-0.027-19.782,0.123-29.67-0.067c-3.17-0.062-3.855,1.087-3.845,4.004c0.095,26.923,0.063,53.845,0.081,80.769
			C364.256,357.071,364.378,357.914,364.443,358.757z"/>
		<path d="M420.275,258.199c0-19.577,0.005-39.154-0.011-58.73c-0.001-1.755-0.039-3.521-0.22-5.265
			c-0.289-2.768,0.963-4.492,3.521-5.158c2.668-0.693,4.778,0.257,5.979,2.808c13.469,28.629,27.373,57.076,36.322,87.583
			c1.142,3.896,2.43,7.781,4.033,11.506c3.932,9.14,5.004,18.851,6.074,28.569c0.453,4.11-2.34,6.069-6.018,4.166
			c-5.366-2.777-10.693-5.647-15.902-8.709c-2.101-1.232-3.685-1.429-4.872,0.834c-4.271,8.144-11.2,10.375-19.777,9.097
			c-0.321-0.049-0.658-0.002-0.988-0.002c-8.264,0.027-8.147,1.062-8.164-8.301c-0.035-19.467-0.01-38.934-0.01-58.399
			C420.256,258.199,420.265,258.199,420.275,258.199z M430.475,215.997c-0.272,0.069-0.548,0.138-0.821,0.208
			c-0.054,1.137-0.148,2.273-0.149,3.411c-0.019,11.21-0.025,22.42-0.025,33.631c0.002,21.542,0.043,43.084-0.033,64.625
			c-0.01,2.581,0.584,3.479,3.412,3.729c4.918,0.438,8.479-0.978,10.99-5.256c0.824-1.404,2.044-2.578,3.09-3.853
			c2.965-3.608,3.357-3.688,7.383-1.421c3.773,2.129,7.541,4.273,11.312,6.414c0.271-0.169,0.546-0.337,0.818-0.505
			c-0.729-4.723-0.74-9.694-2.299-14.122c-9.945-28.248-17.991-57.233-32.078-83.896
			C431.548,217.971,431.009,216.986,430.475,215.997z"/>
		<path d="M301.57,324.487c-13.186,0-26.369-0.022-39.554,0.02c-2.519,0.008-4.969-0.085-6.253-2.654
			c-1.24-2.48-0.153-4.662,1.265-6.745c7.293-10.715,14.521-21.475,21.864-32.154c3.485-5.068,6.815-5.308,11.333-1.081
			c2.81,2.627,5.719,5.156,8.393,7.914c1.751,1.805,3.422,2.282,5.854,1.43c5.072-1.778,10.243-3.274,15.375-4.878
			c4.645-1.452,6.243-1.001,8.969,2.969c6.088,8.873,12.201,17.737,18.026,26.784c0.948,1.472,1.261,4.306,0.456,5.687
			c-0.818,1.403-3.372,2.48-5.186,2.511c-13.071,0.214-26.147,0.124-39.223,0.13c-0.439,0-0.881,0-1.318,0
			C301.57,324.439,301.57,324.463,301.57,324.487z M337.634,319.951c-0.349-0.824-0.481-1.348-0.764-1.771
			c-4.554-6.876-9.175-13.705-13.656-20.629c-1.147-1.773-2.409-1.869-4.182-1.283c-4.902,1.621-9.83,3.17-14.759,4.711
			c-3.731,1.166-7.002,0.84-9.902-2.291c-2.662-2.875-5.75-5.354-9.027-8.354c-6.698,9.896-13.173,19.464-20.046,29.618
			C289.833,319.951,313.562,319.951,337.634,319.951z"/>
		<path d="M213.682,324.553c-9.78,0-19.561,0.02-29.34-0.01c-4.74-0.013-6.115-1.983-4.179-6.412
			c1.889-4.322,4.119-8.495,6.228-12.72c7.259-14.542,14.515-29.085,21.824-43.602c0.675-1.341,1.504-2.782,2.653-3.671
			c2.691-2.083,6.312-0.867,8.108,2.685c5.899,11.664,11.717,23.37,17.563,35.062c3.34,6.68,6.687,13.357,9.997,20.054
			c0.58,1.174,1.171,2.393,1.448,3.656c0.777,3.538-0.353,4.967-3.973,4.982c-10.11,0.045-20.22,0.016-30.33,0.016
			C213.682,324.579,213.682,324.565,213.682,324.553z M189.646,320.249c16.45,0,32.153,0,48.435,0
			c-8.132-16.247-15.985-31.934-24.237-48.422C205.503,288.518,197.674,304.184,189.646,320.249z"/>
		<path d="M517.718,324.448c-9.778,0-19.559,0.017-29.338-0.008c-4.227-0.011-5.612-1.856-3.945-5.8
			c1.837-4.342,4.073-8.516,6.18-12.74c7.298-14.646,14.614-29.283,21.926-43.923c0.099-0.197,0.216-0.384,0.31-0.582
			c1.096-2.303,2.504-4.084,5.428-4.031c2.771,0.05,4.035,1.801,5.116,3.967c5.835,11.688,11.709,23.357,17.542,35.046
			c3.284,6.582,6.527,13.184,9.755,19.795c0.573,1.176,1.169,2.398,1.419,3.665c0.639,3.243-0.433,4.521-3.732,4.531
			c-10.219,0.032-20.438,0.012-30.657,0.012C517.718,324.403,517.718,324.426,517.718,324.448z M542.644,320.461
			c-8.136-16.27-16.067-32.132-24.002-47.995c-0.345,0.008-0.688,0.017-1.032,0.025c-7.879,15.797-15.757,31.593-23.926,47.969
			C510.282,320.461,526.098,320.461,542.644,320.461z"/>
	</g>
</g>
</svg>
