<?xml version="1.0" encoding="utf-8"?>
<!-- Generator: Adobe Illustrator 16.0.0, SVG Export Plug-In . SVG Version: 6.00 Build 0)  -->
<!DOCTYPE svg PUBLIC "-//W3C//DTD SVG 1.1//EN" "http://www.w3.org/Graphics/SVG/1.1/DTD/svg11.dtd">
<svg version="1.1" id="Layer_1" xmlns="http://www.w3.org/2000/svg" xmlns:xlink="http://www.w3.org/1999/xlink" x="0px" y="0px"
	 width="576px" height="576px" viewBox="0 0 576 576" enable-background="new 0 0 576 576" xml:space="preserve">
<g>
	<path d="M288,332.225c-24.386,0-44.225-19.839-44.225-44.225c0-24.386,19.839-44.225,44.225-44.225
		c24.386,0,44.225,19.839,44.225,44.225C332.225,312.386,312.386,332.225,288,332.225z M288,271.802
		c-8.932,0-16.198,7.266-16.198,16.198c0,8.931,7.266,16.197,16.198,16.197c8.931,0,16.197-7.267,16.197-16.197
		C304.197,279.068,296.931,271.802,288,271.802z"/>
	<path d="M288,546.488c-69.044,0-133.957-26.888-182.778-75.709C56.4,421.957,29.512,357.045,29.512,288
		c0-69.044,26.888-133.957,75.709-182.778S218.956,29.512,288,29.512c69.045,0,133.957,26.888,182.779,75.709
		c48.821,48.822,75.709,113.734,75.709,182.778c0,69.045-26.888,133.957-75.709,182.779
		C421.957,519.601,357.045,546.488,288,546.488z M288,69.512c-58.36,0-113.228,22.727-154.494,63.994
		C92.239,174.772,69.512,229.64,69.512,288s22.727,113.228,63.994,154.495c41.267,41.267,96.134,63.993,154.494,63.993
		s113.228-22.727,154.495-63.993c41.267-41.268,63.993-96.135,63.993-154.495s-22.727-113.228-63.993-154.494
		C401.228,92.239,346.36,69.512,288,69.512z"/>
	<g>
		<path d="M479.838,288.001H451.81c0-90.326-73.484-163.811-163.809-163.811V96.162C393.78,96.162,479.838,182.221,479.838,288.001z
			"/>
		<path d="M404.619,288.001h-28.028c0-48.85-39.741-88.592-88.59-88.592v-28.027C352.304,171.381,404.619,223.696,404.619,288.001z"
			/>
		<path d="M288.001,479.838c-105.78,0-191.839-86.058-191.839-191.837h28.028c0,90.324,73.485,163.809,163.811,163.809V479.838z"/>
		<path d="M288.001,404.619c-64.305,0-116.62-52.315-116.62-116.618h28.027c0,48.849,39.743,88.59,88.592,88.59V404.619z"/>
	</g>
	<g>
		<g>
			<path d="M256.949,98.641c-12.733,2.114-25.347,5.524-37.676,10.255l10.042,26.167c9.874-3.789,19.962-6.584,30.147-8.408
				L256.949,98.641z"/>
		</g>
		<g>
			<path d="M263.701,173.935c-5.865,1.252-11.708,2.972-17.48,5.187l10.042,26.167c3.297-1.265,6.625-2.312,9.966-3.162
				L263.701,173.935z"/>
		</g>
		<g>
			<path d="M312.3,402.065c5.867-1.254,11.709-2.973,17.483-5.188l-10.042-26.167c-3.298,1.265-6.627,2.312-9.969,3.164
				L312.3,402.065z"/>
		</g>
		<g>
			<path d="M319.052,477.358c12.734-2.114,25.35-5.524,37.679-10.257l-10.041-26.165c-9.875,3.788-19.963,6.584-30.149,8.405
				L319.052,477.358z"/>
		</g>
	</g>
</g>
</svg>
